<mxfile host="app.diagrams.net" modified="2023-08-28T09:22:06.666Z" agent="Mozilla/5.0 (Macintosh; Intel Mac OS X 10_15_7) AppleWebKit/537.36 (KHTML, like Gecko) Chrome/116.0.0.0 Safari/537.36" version="21.6.9" etag="ypwn3RZOe9ztacC2h5ea" type="github">
  <diagram name="페이지-1" id="jMD3snOQr2K_HxKqRYe1">
    <mxGraphModel>
      <root>
        <mxCell id="0" />
        <mxCell id="1" parent="0" />
      </root>
    </mxGraphModel>
  </diagram>
</mxfile>
